<svg xmlns="http://www.w3.org/2000/svg" viewBox="0 0 160 160"><linearGradient id="a" x1="8.041" x2="140.451" y1="77.89" y2="77.89" gradientUnits="userSpaceOnUse"><stop offset=".102" stop-color="#cf4aff" stop-opacity="0"/><stop offset=".873" stop-color="#cf4aff" stop-opacity=".7"/></linearGradient><path fill="url(#a)" d="M8 102l1.9 36.3 130.5 7S123.5 17.1 79.8 10.4C42.6 34.4 21.8 67.5 8 102z"/><path fill="#AF8AFF" d="M37.6 135.5c-15.1-.7-15.5-12.3 15.1-10.6-10.6-1.1-19.5-4.1-17.6-7.7.4-.7 17.6 1.1 17.6 1.1-10.2-2.5-25.4-12.7-25.4-14.1 0-1.4 16.6-23.6 55.3-3.5l44.4 37.7"/><path fill="#914ED4" d="M147.4 159.3c-21.9-2.1-45.6-3.6-74.7-4.7-5.1-.2-20.1-1.1-33.7-2.6-8.1-.9-14.5-2-19.1-3.1-5.7-1.4-10.9-3.2-10.9-7.6 0-1 .1-2.8 1.8-4 7.1-5.1 52.7-3.2 56.6-3.2 2.2 0 4.1 0 5.3.1 18.4.7 34.7 1.5 49.7 2.5-4.4-24.3-9.6-49.3-15.6-66.1-7.8-22-17.3-40.1-27.4-47.9C56.2 36 33 54.8 8 102 27.8 37.9 64.7.2 81.3.2c2.8 0 4 .5 4 .5 44.5 18.5 59.5 113.6 65.1 149.4.3 1.9.6 3.6.8 5.2l.7 4.5-4.5-.5z"/><path fill="#AF8AFF" d="M76.7 103.1c9.5-10.9 16.2-30.3 15.8-45.8 15.8 4.6 26.1 35.6 26.8 54.2 1.8-9.5 8.5-13.4 12.3-13.4 1.1 20.8-4.2 30.3-9.2 38.7l-45.7-33.7z"/><g><path fill="#36274E" d="M152 160h-49.2c-4.4 0-8-3.6-8-8v-44c0-4.4 3.6-8 8-8H152c4.4 0 8 3.6 8 8v44c0 4.4-3.6 8-8 8z"/><g fill="#FFF"><path d="M116.7 147.7h-4.4v-28c-1.1 1-2.4 2-4.2 3-1.7 1-3.3 1.8-4.6 2.3v-4.2c2.5-1.2 4.6-2.6 6.4-4.2s3.1-3.2 3.9-4.8h2.8v35.9zM127.9 130c0-4.2.4-7.6 1.3-10.2.9-2.6 2.2-4.6 3.9-6 1.7-1.4 3.9-2.1 6.5-2.1 1.9 0 3.6.4 5.1 1.2 1.5.8 2.6 1.9 3.6 3.3.9 1.5 1.7 3.2 2.2 5.3.5 2.1.8 4.9.8 8.5 0 4.2-.4 7.6-1.3 10.2-.9 2.6-2.2 4.6-3.9 6-1.7 1.4-3.9 2.1-6.5 2.1-3.5 0-6.2-1.2-8.1-3.7-2.4-3-3.6-7.9-3.6-14.6zm4.6 0c0 5.9.7 9.8 2.1 11.7 1.4 1.9 3.1 2.9 5.1 2.9s3.7-1 5.1-2.9c1.4-2 2.1-5.9 2.1-11.7 0-5.9-.7-9.8-2.1-11.7-1.4-1.9-3.1-2.9-5.1-2.9-2 0-3.6.9-4.8 2.6-1.7 2.1-2.4 6.1-2.4 12z"/></g></g></svg>