<svg xmlns="http://www.w3.org/2000/svg" fill-rule="evenodd" stroke-linejoin="round" stroke-miterlimit="2" clip-rule="evenodd" viewBox="0 0 160 160"><g fill-rule="nonzero"><path fill="#9a91d9" d="M20.121 54.683c5.147 12.673 7.594 21.117 5.33 29.178-2.066 7.355-9.349 13.105-19.49 8.728 1.895 12.786 22.437 27.37 42.827 15.369-2.488 5.62-5.436 7.124-9.477 9.629 17.748 2.953 38.842-2.703 52.827-14.435 13.751-11.536 24.764-30.596 24.348-46.417-.003-.1-.287.221-.423.26-6.94 1.88-8.235-2.844-7.753-7.089-14.286 2.583-23.448-13.34-39.231-8.779 3.955-3.187 9.183-3.177 13.729-4.144-14.738-9.215-31.984-8.59-41.1 4.921.583-2.86 2.056-5.693 3.28-8.375-10.491 3.717-17.926 9.494-24.867 21.154z"/><path fill="#36274e" d="M50.86 86.718c9.87-14.64 25.353-18.203 36.956-16.234-18.806-15.399-37.784-4.22-36.956 16.234z"/><path fill="#776fb4" d="M10.278 16.26c-1.875 16.657 5.13 31.669 11.912 50.529 7.596 21.127-8.86 30.785-16.31 20.285-7.45-10.5-9.639-45.265 4.398-70.814z"/><path fill="#5b529e" d="M19.258 51.834S5.615 23.168 17.013 1.754c2.065 16.664 6.688 28.49 13.815 36.87-5.508 5.027-8.262 8.618-11.57 13.21z"/><path fill="#9a91d9" d="M7.688 110.549c5.888 30.686 39.7 48.6 60.096 47.662-1.785-1.567-3.57-3.008-5.354-5.008 15.393 7.083 30.276 2.766 40.583-2.072-2.611-.744-5.213-1.515-7.599-2.936 3.449-.712 7.054-2.518 9.67-5.353-8.49-.239-16.607-1.708-24.53-8.873 9.3-4.662 14.538-10.81 16.589-15.792-2.126.972-4.438 1.504-6.564 1.697 1.94-3.803 3.24-7.888 3.799-12.607-37.573 28.776-71.332 12.217-86.69 3.282z"/><path fill="#5b529e" d="M97.659 105.757c-.56 3.471-1.507 7.531-2.823 10.546 4.16-2.056 6.03-4.893 7.659-7.826 0 0-1.728 18.304-17.27 25.557 0 0 9.335 8.167 26.43 5.231-2.016 3.283-4.263 6.038-10.403 8.98 9.362 1.772 24.733-3.886 29.98-13.077-4.642 1.478-7.913 1.583-11.296 1.802 25.961-10.304 14.952-40.368 40.064-55.26-9.936-4.959-25.313-8.41-40.927 6.907 1.523-2.233 3.614-5.613 7.08-9.152-11.735 3.425-18.45 18.248-28.494 26.292z"/><path fill="#291e3b" d="M108.23 49.92c-.358 2.213-.64 5.644.306 8.318 2.578.344 5.925-.163 7.954-1.36-.043-3.73-.737-6.625-1.75-9.305-2.083 1.034-3.597 1.76-6.51 2.347z"/></g><path fill="#36274e" fill-rule="nonzero" d="M152 160h-49.2c-4.4 0-8-3.6-8-8v-44c0-4.4 3.6-8 8-8H152c4.4 0 8 3.6 8 8v44c0 4.4-3.6 8-8 8z"/><path fill="#fff" fill-rule="nonzero" d="M116.7 147.7h-4.4v-28c-1.1 1-2.4 2-4.2 3-1.7 1-3.3 1.8-4.6 2.3v-4.2c2.5-1.2 4.6-2.6 6.4-4.2 1.8-1.6 3.1-3.2 3.9-4.8h2.8v35.9h.1zm11.2-17.7c0-4.2.4-7.6 1.3-10.2.9-2.6 2.2-4.6 3.9-6 1.7-1.4 3.9-2.1 6.5-2.1 1.9 0 3.6.4 5.1 1.2 1.5.8 2.6 1.9 3.6 3.3.9 1.5 1.7 3.2 2.2 5.3.5 2.1.8 4.9.8 8.5 0 4.2-.4 7.6-1.3 10.2-.9 2.6-2.2 4.6-3.9 6-1.7 1.4-3.9 2.1-6.5 2.1-3.5 0-6.2-1.2-8.1-3.7-2.4-3-3.6-7.9-3.6-14.6zm4.6 0c0 5.9.7 9.8 2.1 11.7 1.4 1.9 3.1 2.9 5.1 2.9 2 0 3.7-1 5.1-2.9 1.4-2 2.1-5.9 2.1-11.7 0-5.9-.7-9.8-2.1-11.7-1.4-1.9-3.1-2.9-5.1-2.9-2 0-3.6.9-4.8 2.6-1.7 2.1-2.4 6.1-2.4 12z"/></svg>